<svg id="Capa_1" enable-background="new 0 0 512 512" height="512" viewBox="0 0 512 512" width="512" xmlns="http://www.w3.org/2000/svg"><g><g><path d="m440.244 294.669c-.764-10.97-2.129-22.822-4.093-35.385-.853-5.458-5.976-9.191-11.424-8.336-5.457.853-9.188 5.967-8.336 11.424 1.802 11.531 3.081 22.405 3.82 32.458-36.047 4.761-65.247 34.25-69.672 70.335h-32.983l34.586-57.048c10.479-17.295 16.018-37.117 16.018-57.321v-102.846c0-.006.001-.013.001-.019v-10.406c4.076 2.585 8.633 4.511 13.53 5.625 4.81 9.314 9.779 21.487 14.502 35.556 1.759 5.235 7.425 8.056 12.663 6.297 5.235-1.758 8.055-7.427 6.298-12.663-3.531-10.517-7.137-19.904-10.781-28.098h10.311c5.522 0 10-4.477 10-10v-69.327c0-5.523-4.478-10-10-10h-23.268c-23.124 0-42.067 18.24-43.2 41.088-6.497-4.065-14.166-6.424-22.379-6.424h-31.036c-5.522 0-10 4.477-10 10s4.478 10 10 10h31.036c12.297 0 22.302 9.993 22.323 22.285v118.931c0 16.55-4.538 32.788-13.121 46.956l-40.868 67.411h-68.84v-85.449c0-15.852-6.066-30.313-15.996-41.188h5.996c5.523 0 10-4.477 10-10v-11.395c0-24.557-19.979-44.535-44.535-44.535h-28.538v-78.083c0-5.523-4.477-10-10-10h-131.8c-5.523 0-10 4.477-10 10v134.011c0 5.523 4.477 10 10 10h33.793c-26.78 19.284-44.251 50.723-44.251 86.17v50.465c0 5.523 4.477 10 10 10h39.663c-.348 2.706-.525 5.444-.525 8.203 0 35.138 28.586 63.724 63.724 63.724s63.724-28.586 63.724-63.724c0-2.76-.177-5.497-.525-8.203h191.703c-.348 2.706-.525 5.444-.525 8.203 0 35.138 28.586 63.724 63.724 63.724s63.724-28.586 63.724-63.724c0-2.76-.177-5.497-.525-8.203h7.838c5.522 0 10-4.477 10-10 0-41.544-31.429-75.867-71.756-80.489zm-72.083-196.499c0-12.823 10.432-23.255 23.255-23.255h13.268v49.328h-13.268c-14.781 0-23.255-12.495-23.255-26.073zm-255.3 338.915c-24.109 0-43.724-19.615-43.724-43.724 0-2.775.257-5.517.766-8.2h85.916c.509 2.683.766 5.424.766 8.2 0 24.109-19.614 43.724-43.724 43.724zm67.934-244.49c13.529 0 24.535 11.006 24.535 24.535v1.394h-53.073v-25.929zm-160.337-88.083h111.799v26.348h-111.799zm0 46.348h111.799v67.664h-111.799zm-.458 173.833c0-47.49 38.636-86.126 86.126-86.126h58.06c22.688 0 41.145 18.458 41.145 41.145v85.446h-185.331zm410.963 112.392c-24.109 0-43.724-19.615-43.724-43.724 0-2.775.257-5.516.766-8.2h85.915c.51 2.683.767 5.424.767 8.2 0 24.109-19.615 43.724-43.724 43.724zm60.218-71.927h-120.431c4.841-29.045 30.765-51.036 60.214-51.036 30.25 0 55.431 22.122 60.217 51.036z"/><path d="m422.87 207.84c-3.549-2.365-8.343-2.191-11.7.439-3.318 2.599-4.672 7.099-3.315 11.093 2.868 8.439 15.02 8.972 18.609.811 1.931-4.389.385-9.665-3.594-12.343z"/></g></g></svg>